<svg xmlns="http://www.w3.org/2000/svg" viewBox="0 0 256 256" width="128" height="128"><rect x="5" y="5" width="246" height="246" rx="40" ry="40" fill="#f0f1f3" stroke="#0A61AD" stroke-width="10"/><path d="M100 75 C118 65, 142 63, 162 72 C180 80, 192 96, 194 115 C196 134, 188 152, 176 165 C164 176, 148 182, 134 180 C120 182, 106 176, 96 165 C86 152, 82 134, 86 115 C88 98, 92 83, 100 75Z" fill="#9ca3af" stroke="#6b7280" stroke-width="3"/><path d="M106 83 C120 75, 140 73, 156 80 C170 87, 180 100, 182 115 C184 130, 178 145, 168 156 C158 164, 144 168, 132 166 C120 168, 108 162, 100 154 C92 144, 88 130, 92 115 C94 102, 98 90, 106 83Z" fill="#d1d5db"/><circle cx="122" cy="102" r="5" fill="#b0b5be"/><circle cx="150" cy="98" r="4" fill="#b0b5be"/><circle cx="138" cy="125" r="6.5" fill="#b0b5be"/><circle cx="112" cy="135" r="4.5" fill="#b0b5be"/><circle cx="158" cy="135" r="4.5" fill="#b0b5be"/><circle cx="128" cy="152" r="3.5" fill="#b0b5be"/><circle cx="162" cy="115" r="3.5" fill="#b0b5be"/><circle cx="76" cy="172" r="7" fill="#9ca3af"/><circle cx="76" cy="172" r="4.5" fill="#d1d5db"/><circle cx="90" cy="184" r="5" fill="#9ca3af"/><circle cx="90" cy="184" r="3.5" fill="#d1d5db"/><circle cx="65" cy="184" r="4" fill="#9ca3af"/><circle cx="65" cy="184" r="2.5" fill="#d1d5db"/><circle cx="80" cy="195" r="3" fill="#9ca3af"/><circle cx="80" cy="195" r="2" fill="#d1d5db"/><circle cx="62" cy="172" r="2.5" fill="#9ca3af"/><circle cx="72" cy="198" r="2" fill="#9ca3af"/><circle cx="56" cy="192" r="2" fill="#9ca3af"/></svg>
